<svg xmlns="http://www.w3.org/2000/svg" width="1280" height="800" viewBox="0 0 1280 800">
  <defs>
    <clipPath id="clockWorkClip">
      <circle cx="716" cy="411" r="222"/>
    </clipPath>
    <clipPath id="clockDoneClip">
      <circle cx="1085" cy="615" r="105"/>
    </clipPath>
    <filter id="shadow" x="-20%" y="-20%" width="140%" height="140%">
      <feDropShadow dx="0" dy="7" stdDeviation="11" flood-color="#17202a" flood-opacity=".12"/>
    </filter>
  </defs>

  <rect width="1280" height="800" fill="#f6f8fb"/>
  <text x="26" y="30" fill="#c94631" font-family="Segoe UI, Malgun Gothic, sans-serif" font-size="14" font-weight="800">
    초등 수학 체험
  </text>
  <text x="26" y="73" fill="#17202a" font-family="Segoe UI, Malgun Gothic, sans-serif" font-size="36" font-weight="900">
    테셀레이션 놀이터
  </text>

  <rect x="20" y="96" width="222" height="684" rx="8" fill="#fff" stroke="#d8dee8" filter="url(#shadow)"/>
  <g font-family="Segoe UI, Malgun Gothic, sans-serif" font-weight="800">
    <rect x="32" y="110" width="56" height="38" rx="7" fill="#fff" stroke="#17202a" stroke-width="2"/>
    <text x="60" y="135" text-anchor="middle" font-size="13" fill="#17202a">자유</text>
    <rect x="94" y="110" width="56" height="38" rx="7" fill="#fff" stroke="#17202a" stroke-width="2"/>
    <text x="122" y="135" text-anchor="middle" font-size="13" fill="#17202a">도안</text>
    <rect x="156" y="110" width="74" height="38" rx="7" fill="#17202a" stroke="#17202a" stroke-width="2"/>
    <text x="193" y="135" text-anchor="middle" font-size="13" fill="#fff">꾸미기</text>

    <text x="32" y="180" font-size="16" fill="#17202a">꾸밀 물건</text>
    <rect x="32" y="194" width="198" height="52" rx="7" fill="#ffd166" stroke="#17202a" stroke-width="2"/>
    <circle cx="58" cy="220" r="15" fill="#fff" stroke="#17202a" stroke-width="2"/>
    <text x="86" y="226" font-size="15" fill="#17202a">아날로그 시계</text>
    <rect x="32" y="254" width="198" height="52" rx="7" fill="#fff" stroke="#17202a" stroke-width="2"/>
    <rect x="45" y="268" width="29" height="25" rx="4" fill="#f76f53" stroke="#17202a" stroke-width="2"/>
    <text x="86" y="286" font-size="15" fill="#17202a">캐리어</text>
    <rect x="32" y="314" width="198" height="52" rx="7" fill="#fff" stroke="#17202a" stroke-width="2"/>
    <path d="M45 353v-21a15 15 0 0 1 30 0v21z" fill="#8e5cf7" stroke="#17202a" stroke-width="2"/>
    <text x="86" y="347" font-size="15" fill="#17202a">스테인드글라스</text>

    <line x1="32" y1="388" x2="230" y2="388" stroke="#d8dee8"/>
    <text x="32" y="418" font-size="16" fill="#17202a">도형 고르기</text>

    <rect x="32" y="434" width="198" height="42" rx="7" fill="#f76f53" stroke="#17202a" stroke-width="2"/>
    <polygon points="48,463 58,445 68,463" fill="#06a77d"/>
    <text x="82" y="460" font-size="14" fill="#17202a">정삼각형</text>
    <rect x="32" y="484" width="198" height="42" rx="7" fill="#fff" stroke="#17202a" stroke-width="2"/>
    <rect x="47" y="495" width="20" height="20" fill="#4d96ff"/>
    <text x="82" y="510" font-size="14" fill="#17202a">정사각형</text>
    <rect x="32" y="534" width="198" height="42" rx="7" fill="#fff" stroke="#17202a" stroke-width="2"/>
    <polygon points="48,545 64,545 72,555 64,565 48,565 40,555" fill="#ffd166"/>
    <text x="82" y="560" font-size="14" fill="#17202a">정육각형</text>

    <text x="32" y="612" font-size="16" fill="#17202a">색깔 도형</text>
    <rect x="32" y="628" width="60" height="60" rx="7" fill="#fff" stroke="#17202a" stroke-width="2"/>
    <polygon points="42,678 62,642 82,678" fill="#f76f53" stroke="#17202a" stroke-width="2"/>
    <rect x="101" y="628" width="60" height="60" rx="7" fill="#fff" stroke="#17202a" stroke-width="2"/>
    <polygon points="111,678 131,642 151,678" fill="#ffd166" stroke="#17202a" stroke-width="2"/>
    <rect x="170" y="628" width="60" height="60" rx="7" fill="#fff" stroke="#17202a" stroke-width="2"/>
    <polygon points="180,678 200,642 220,678" fill="#06a77d" stroke="#17202a" stroke-width="2"/>
  </g>

  <rect x="258" y="96" width="1002" height="684" rx="8" fill="#fff" stroke="#d8dee8" filter="url(#shadow)"/>
  <text x="282" y="129" fill="#17202a" font-family="Segoe UI, Malgun Gothic, sans-serif" font-size="19" font-weight="900">
    시계 안을 테셀레이션으로 꾸며 보세요
  </text>
  <text x="282" y="155" fill="#5d6878" font-family="Segoe UI, Malgun Gothic, sans-serif" font-size="14" font-weight="700">
    도형을 끌어와 빈틈없이 이어 붙일 수 있어요.
  </text>

  <circle cx="716" cy="411" r="228" fill="#fbfcfe" stroke="#17202a" stroke-width="6"/>

  <g clip-path="url(#clockWorkClip)" stroke="#17202a" stroke-width="3">
    <polygon points="394,411 438,335 482,411" fill="#f76f53"/>
    <polygon points="438,335 482,411 526,335" fill="#ffd166"/>
    <polygon points="482,411 526,335 570,411" fill="#06a77d"/>
    <polygon points="526,335 570,411 614,335" fill="#4d96ff"/>
    <polygon points="570,411 614,335 658,411" fill="#8e5cf7"/>
    <polygon points="614,335 658,411 702,335" fill="#f76f53"/>
    <polygon points="658,411 702,335 746,411" fill="#ffd166"/>
    <polygon points="702,335 746,411 790,335" fill="#06a77d"/>
    <polygon points="746,411 790,335 834,411" fill="#4d96ff"/>
    <polygon points="790,335 834,411 878,335" fill="#8e5cf7"/>
    <polygon points="834,411 878,335 922,411" fill="#f76f53"/>
    <polygon points="878,335 922,411 966,335" fill="#ffd166"/>
    <polygon points="394,411 438,487 482,411" fill="#06a77d"/>
    <polygon points="438,487 482,411 526,487" fill="#4d96ff"/>
    <polygon points="482,411 526,487 570,411" fill="#8e5cf7"/>
    <polygon points="526,487 570,411 614,487" fill="#f76f53"/>
    <polygon points="570,411 614,487 658,411" fill="#ffd166"/>
    <polygon points="614,487 658,411 702,487" fill="#06a77d"/>
    <polygon points="658,411 702,487 746,411" fill="#4d96ff"/>
    <polygon points="702,487 746,411 790,487" fill="#8e5cf7"/>
    <polygon points="746,411 790,487 834,411" fill="#f76f53"/>
    <polygon points="790,487 834,411 878,487" fill="#ffd166"/>
    <polygon points="834,411 878,487 922,411" fill="#06a77d"/>
    <polygon points="878,487 922,411 966,487" fill="#4d96ff"/>
  </g>

  <path d="M716 183a228 228 0 0 1 221 173" fill="none" stroke="#d8dee8" stroke-width="3" stroke-dasharray="9 7"/>
  <path d="M937 356a228 228 0 0 1-33 194" fill="none" stroke="#d8dee8" stroke-width="3" stroke-dasharray="9 7"/>
  <text x="716" y="660" text-anchor="middle" fill="#5d6878" font-family="Segoe UI, Malgun Gothic, sans-serif" font-size="14" font-weight="700">
    꾸미는 동안에는 시곗바늘이 보이지 않아요.
  </text>

  <rect x="606" y="696" width="220" height="54" rx="7" fill="#f76f53" stroke="#17202a" stroke-width="2"/>
  <text x="716" y="730" text-anchor="middle" fill="#17202a" font-family="Segoe UI, Malgun Gothic, sans-serif" font-size="17" font-weight="900">
    완성
  </text>

  <path d="M846 723h92" fill="none" stroke="#17202a" stroke-width="3"/>
  <path d="m928 715 12 8-12 8" fill="none" stroke="#17202a" stroke-width="3" stroke-linecap="round" stroke-linejoin="round"/>

  <text x="1085" y="472" text-anchor="middle" fill="#17202a" font-family="Segoe UI, Malgun Gothic, sans-serif" font-size="15" font-weight="900">
    완성 후
  </text>
  <circle cx="1085" cy="615" r="111" fill="#fff" stroke="#17202a" stroke-width="5"/>
  <g clip-path="url(#clockDoneClip)" stroke="#17202a" stroke-width="2">
    <polygon points="949,615 971,577 993,615" fill="#f76f53"/>
    <polygon points="971,577 993,615 1015,577" fill="#ffd166"/>
    <polygon points="993,615 1015,577 1037,615" fill="#06a77d"/>
    <polygon points="1015,577 1037,615 1059,577" fill="#4d96ff"/>
    <polygon points="1037,615 1059,577 1081,615" fill="#8e5cf7"/>
    <polygon points="1059,577 1081,615 1103,577" fill="#f76f53"/>
    <polygon points="1081,615 1103,577 1125,615" fill="#ffd166"/>
    <polygon points="1103,577 1125,615 1147,577" fill="#06a77d"/>
    <polygon points="1125,615 1147,577 1169,615" fill="#4d96ff"/>
    <polygon points="949,615 971,653 993,615" fill="#06a77d"/>
    <polygon points="971,653 993,615 1015,653" fill="#4d96ff"/>
    <polygon points="993,615 1015,653 1037,615" fill="#8e5cf7"/>
    <polygon points="1015,653 1037,615 1059,653" fill="#f76f53"/>
    <polygon points="1037,615 1059,653 1081,615" fill="#ffd166"/>
    <polygon points="1059,653 1081,615 1103,653" fill="#06a77d"/>
    <polygon points="1081,615 1103,653 1125,615" fill="#4d96ff"/>
    <polygon points="1103,653 1125,615 1147,653" fill="#8e5cf7"/>
    <polygon points="1125,615 1147,653 1169,615" fill="#f76f53"/>
  </g>
  <line x1="1085" y1="615" x2="1085" y2="538" stroke="#17202a" stroke-width="6" stroke-linecap="round"/>
  <line x1="1085" y1="615" x2="1142" y2="650" stroke="#17202a" stroke-width="6" stroke-linecap="round"/>
  <line x1="1085" y1="615" x2="1047" y2="669" stroke="#c94631" stroke-width="3" stroke-linecap="round"/>
  <circle cx="1085" cy="615" r="9" fill="#f76f53" stroke="#17202a" stroke-width="3"/>
</svg>
