<svg xmlns="http://www.w3.org/2000/svg" width="443pt" height="575pt" version="1.2" viewBox="0 0 443 575"><path fill="none" stroke="#000" d="m9.238 31.574 10-17.32h20l10 17.32-10 17.32h-20l-10-17.32m0 0 10-17.32h20l10 17.32-10 17.32h-20zm40 0 10-17.32h20l10 17.32-10 17.32h-20l-10-17.32m0 0 10-17.32h20l10 17.32-10 17.32h-20zm40 0 10-17.32h20l10 17.32-10 17.32h-20l-10-17.32m0 0 10-17.32h20l10 17.32-10 17.32h-20zm40 0 10-17.32h20l10 17.32-10 17.32h-20l-10-17.32m0 0 10-17.32h20l10 17.32-10 17.32h-20zm-106-17.32h132M29.312 66.383l10-17.32h20l10 17.32-10 17.32h-20l-10-17.32m0 0 10-17.32h20l10 17.32-10 17.32h-20zm40 0 10-17.32h20l10 17.32-10 17.32h-20l-10-17.32m0 0 10-17.32h20l10 17.32-10 17.32h-20zm40 0 10-17.32h20l10 17.32-10 17.32h-20l-10-17.32m0 0 10-17.32h20l10 17.32-10 17.32h-20zm40 0 10-17.32h20l10 17.32-10 17.32h-20l-10-17.32m0 0 10-17.32h20l10 17.32-10 17.32h-20zM43.488 49.004h132M9.431 101.117l10-17.32h20l10 17.32-10 17.32h-20l-10-17.32m0 0 10-17.32h20l10 17.32-10 17.32h-20zm40 0 10-17.32h20l10 17.32-10 17.32h-20l-10-17.32m0 0 10-17.32h20l10 17.32-10 17.32h-20zm40 0 10-17.32h20l10 17.32-10 17.32h-20l-10-17.32m0 0 10-17.32h20l10 17.32-10 17.32h-20zm40 0 10-17.32h20l10 17.32-10 17.32h-20l-10-17.32m0 0 10-17.32h20l10 17.32-10 17.32h-20zm-105 17.305h129M312.398 1.875l16.454 9.5v19l-16.454 9.5-16.453-9.5v-19zm52.161 0 16.453 9.5v19l-16.453 9.5-16.454-9.5-.004-19zm-35.707 9.375h19.25V30.5h-19.25zm-6.719 45.336-9.625-16.672 16.668-9.625 9.625 16.672zm58.879-45.336h19.25V30.5h-19.25zm-58.774 64.273v-19l16.457-9.5 16.453 9.5v19l-16.453 9.5zm52.25 0v-19l16.457-9.5 16.453 9.5v19l-16.453 9.5zm-.105-18.937-9.625-16.672 16.668-9.625 9.625 16.672zm-19.281 0h19.25v19.25h-19.25zM348.383 30.5l-9.625 16.672 16.668 9.625 9.625-16.672zm-61.735 16.625 16.454 9.5v19l-16.454 9.5-16.453-9.5v-19zm52.161 0 16.453 9.5v19l-16.453 9.5-16.454-9.5-.004-19zM303.102 56.5h19.25v19.25h-19.25zm-6.719 45.336-9.625-16.672 16.668-9.625 9.625 16.672zM355.262 56.5h19.25v19.25h-19.25zm-58.774 64.273v-19l16.457-9.5 16.453 9.5v19l-16.453 9.5zm52.25 0v-19l16.457-9.5 16.453 9.5v19l-16.453 9.5zm-.105-18.937-9.625-16.672 16.668-9.625 9.625 16.672zm-19.281 0h19.25v19.25h-19.25zm-6.719-26.086-9.625 16.672 16.668 9.625 9.625-16.672zm78.25 26.086-9.625-16.672 16.668-9.625 9.625 16.672zm-19.281 0h19.25v19.25h-19.25zm-6.719-26.086-9.625 16.672 16.668 9.625 9.625-16.672zm-78.75-45.21-9.625 16.67 16.668 9.626 9.625-16.672zm-19.281-19.25h19.25v19.25h-19.25zm-6.719 45.335-9.625-16.672 16.668-9.625L286.8 47zm130.5-26.125-9.625 16.672 16.668 9.625 9.625-16.672zm-123.531 71.586h19.25v19.25h-19.25zM270.383 76l-9.625 16.672 16.668 9.625 9.625-16.672zM13.64 149.668v17.703m12.555-30.223-12.554 12.52m30.309-12.52H26.194m30.31 12.52-12.555-12.52m12.555 30.36v-17.703M43.95 180.023l12.554-12.515m-30.309 12.515H43.95m-30.31-12.515 12.555 12.515m30.309-30.355v17.703m12.555-30.223-12.555 12.52m30.309-12.52H69.058m30.305 12.52-12.55-12.52m12.55 30.36v-17.703m-12.55 30.218 12.55-12.515m-30.304 12.515h17.754m-30.309-12.515 12.555 12.515m30.304-30.355v17.703m12.555-30.223-12.555 12.52m30.309-12.52h-17.754m30.309 12.52-12.555-12.52m12.555 30.36v-17.703m-12.555 30.218 12.555-12.515m-30.309 12.515h17.754m-30.309-12.515 12.555 12.515m30.309-30.355v17.703m12.554-30.223-12.554 12.52m30.308-12.52h-17.754m30.309 12.52-12.555-12.52m12.555 30.36v-17.703m-12.555 30.218 12.555-12.515m-30.309 12.515h17.754m-30.308-12.515 12.554 12.515M13.64 192.543v17.703m12.555-30.223-12.554 12.52m30.309-12.52H26.194m30.31 12.52-12.555-12.52m12.555 30.36V192.68M43.95 222.898l12.554-12.515m-30.309 12.515H43.95m-30.31-12.515 12.555 12.515m30.309-30.355v17.703m12.555-30.223-12.555 12.52m30.309-12.52H69.058m30.305 12.52-12.55-12.52m12.55 30.36V192.68m-12.55 30.218 12.55-12.515m-30.304 12.515h17.754m-30.309-12.515 12.555 12.515m30.304-30.355v17.703m12.555-30.223-12.555 12.52m30.309-12.52h-17.754m30.309 12.52-12.555-12.52m12.555 30.36V192.68m-12.555 30.218 12.555-12.515m-30.309 12.515h17.754m-30.309-12.515 12.555 12.515m30.309-30.355v17.703m12.554-30.223-12.554 12.52m30.308-12.52h-17.754m30.309 12.52-12.555-12.52m12.555 30.36V192.68m-12.555 30.218 12.555-12.515m-30.309 12.515h17.754m-30.308-12.515 12.554 12.515M13.64 235.418v17.703m12.555-30.223-12.554 12.52m30.309-12.52H26.194m30.31 12.52-12.555-12.52m12.555 30.36v-17.703M43.95 265.773l12.554-12.515m-30.309 12.515H43.95m-30.31-12.515 12.555 12.515m30.309-30.355v17.703m12.555-30.223-12.555 12.52m30.309-12.52H69.058m30.305 12.52-12.55-12.52m12.55 30.36v-17.703m-12.55 30.218 12.55-12.515m-30.304 12.515h17.754m-30.309-12.515 12.555 12.515m30.304-30.355v17.703m12.555-30.223-12.555 12.52m30.309-12.52h-17.754m30.309 12.52-12.555-12.52m12.555 30.36v-17.703m-12.555 30.218 12.555-12.515m-30.309 12.515h17.754m-30.309-12.515 12.555 12.515m30.309-30.355v17.703m12.554-30.223-12.554 12.52m30.308-12.52h-17.754m30.309 12.52-12.555-12.52m12.555 30.36v-17.703m-12.555 30.218 12.555-12.515m-30.309 12.515h17.754m-30.308-12.515 12.554 12.515m-95.945 23.254 8.43 4.895 4.867 8.476v9.786l-4.867 8.476-8.43 4.895h-9.73l-8.43-4.895-4.867-8.473v-9.789l4.863-8.476 8.43-4.895h9.734m0 0 8.43 4.895 4.867 8.476v9.786l-4.867 8.476-8.43 4.895h-9.73l-8.43-4.895-4.867-8.473v-9.789l4.863-8.476 8.43-4.895zM40.73 320.71l8.43 4.895 4.867 8.477v9.785l-4.867 8.477-8.43 4.894H31l-8.43-4.89-4.867-8.477v-9.785l4.863-8.48 8.43-4.895h9.734m0-.001 8.43 4.895 4.867 8.477v9.785l-4.867 8.477-8.43 4.894H31l-8.43-4.89-4.867-8.477v-9.785l4.863-8.48 8.43-4.895zm54.352-31.772 8.426 4.89 4.867 8.477v9.789l-4.863 8.476-8.43 4.895h-9.734l-8.43-4.895-4.863-8.476-.004-9.785 4.867-8.477 8.43-4.895h9.734m0 .001 8.426 4.89 4.867 8.477v9.789l-4.863 8.476-8.43 4.895h-9.734l-8.43-4.895-4.863-8.476-.004-9.785 4.867-8.477 8.43-4.895zm-18.105 31.683 8.425 4.895 4.868 8.472v9.79l-4.864 8.476-8.43 4.894h-9.734l-8.426-4.894-4.867-8.473-.004-9.789 4.868-8.476 8.425-4.895h9.739m0 0 8.425 4.895 4.868 8.472v9.79l-4.864 8.476-8.43 4.894h-9.734l-8.426-4.894-4.867-8.473-.004-9.789 4.868-8.476 8.425-4.895zm54.347-31.777 8.43 4.894 4.867 8.477v9.789l-4.867 8.473-8.43 4.894h-9.73l-8.43-4.89-4.867-8.477v-9.785l4.863-8.477 8.43-4.894 9.734-.004m0 0 8.43 4.894 4.867 8.477v9.789l-4.867 8.473-8.43 4.894h-9.73l-8.43-4.89-4.867-8.477v-9.785l4.863-8.477 8.43-4.894zm-18.105 31.687 8.43 4.89 4.867 8.477v9.79l-4.868 8.472-8.43 4.895-9.73.004-8.43-4.895-4.867-8.476v-9.786l4.864-8.476 8.43-4.895h9.734m0 0 8.43 4.89 4.867 8.477v9.79l-4.868 8.472-8.43 4.895-9.73.004-8.43-4.895-4.867-8.476v-9.786l4.864-8.476 8.43-4.895zm54.351-31.777 8.426 4.894 4.867 8.477v9.785l-4.867 8.477-8.426 4.894h-9.73l-8.43-4.894-4.87-8.473v-9.789l4.866-8.477 8.43-4.894h9.734m0 0 8.426 4.894 4.867 8.477v9.785l-4.867 8.477-8.426 4.894h-9.73l-8.43-4.894-4.87-8.473v-9.789l4.866-8.477 8.43-4.894zm-18.105 31.684 8.426 4.894 4.867 8.477v9.785l-4.863 8.476-8.43 4.895h-9.735l-8.425-4.89-4.868-8.477-.003-9.79 4.867-8.472 8.43-4.899h9.734m0 .001 8.426 4.894 4.867 8.477v9.785l-4.863 8.476-8.43 4.895h-9.735l-8.425-4.89-4.868-8.477-.003-9.79 4.867-8.472 8.43-4.899zM59 352.34l8.426 4.894 4.867 8.477v9.785l-4.863 8.477-8.43 4.894h-9.73l-8.43-4.894-4.867-8.473-.004-9.79 4.867-8.476 8.43-4.894H59m0 0 8.426 4.894 4.867 8.477v9.785l-4.863 8.477-8.43 4.894h-9.73l-8.43-4.894-4.867-8.473-.004-9.79 4.867-8.476 8.43-4.894zm-18.105 31.683 8.43 4.895 4.862 8.477v9.785l-4.863 8.476-8.43 4.895H31.16l-8.426-4.89-4.867-8.477-.004-9.79 4.867-8.476 8.43-4.895h9.735m0 0 8.43 4.895 4.862 8.477v9.785l-4.863 8.476-8.43 4.895H31.16l-8.426-4.89-4.867-8.477-.004-9.79 4.867-8.476 8.43-4.895zm54.347-31.773 8.43 4.89 4.867 8.477v9.79l-4.867 8.476-8.43 4.894h-9.73l-8.43-4.894-4.867-8.477v-9.785l4.867-8.476 8.426-4.895h9.734m0 0 8.43 4.89 4.867 8.477v9.79l-4.867 8.476-8.43 4.894h-9.73l-8.43-4.894-4.867-8.477v-9.785l4.867-8.476 8.426-4.895zm-18.105 31.684 8.43 4.894 4.867 8.473v9.789l-4.868 8.476-8.425 4.895h-9.735l-8.43-4.895-4.867-8.472v-9.79l4.864-8.476 8.43-4.894h9.734m0 0 8.43 4.894 4.867 8.473v9.789l-4.868 8.476-8.425 4.895h-9.735l-8.43-4.895-4.867-8.472v-9.79l4.864-8.476 8.43-4.894zm54.351-31.778 8.426 4.895 4.867 8.476v9.785l-4.863 8.477-8.43 4.895h-9.73l-8.43-4.891-4.867-8.477v-9.789l4.863-8.472 8.43-4.899h9.734m0 0 8.426 4.895 4.867 8.476v9.785l-4.863 8.477-8.43 4.895h-9.73l-8.43-4.891-4.867-8.477v-9.789l4.863-8.472 8.43-4.899zm-18.105 31.688 8.43 4.89 4.863 8.477v9.785l-4.863 8.48-8.43 4.891h-9.735l-8.425-4.89L90.355 407l-.003-9.785 4.867-8.477 8.43-4.894h9.734m0 0 8.43 4.89 4.863 8.477v9.785l-4.863 8.48-8.43 4.891h-9.735l-8.425-4.89L90.355 407l-.003-9.785 4.867-8.477 8.43-4.894zm54.347-31.778 8.43 4.895 4.867 8.476v9.786l-4.867 8.476-8.426 4.895H158l-8.43-4.895-4.867-8.472v-9.79l4.867-8.476 8.426-4.895h9.734m0 0 8.43 4.895 4.867 8.476v9.786l-4.867 8.476-8.426 4.895H158l-8.43-4.895-4.867-8.472v-9.79l4.867-8.476 8.426-4.895zm-18.105 31.684 8.43 4.895 4.867 8.476v9.785l-4.867 8.477-8.426 4.894h-9.734l-8.43-4.89-4.867-8.477v-9.789l4.867-8.476 8.426-4.895h9.734m0 0 8.43 4.895 4.867 8.476v9.785l-4.867 8.477-8.426 4.894h-9.734l-8.43-4.89-4.867-8.477v-9.789l4.867-8.476 8.426-4.895zM26.68 518.258l7.91 13.652-7.91 13.656H10.867l-7.91-13.656 7.906-13.652H26.68m0 0 7.91 13.652-7.91 13.656H10.867l-7.91-13.656 7.906-13.652zm37.043-64.11 7.906 13.653-7.906 13.656H47.906L40 467.805l7.906-13.657h15.817m0 0 7.906 13.653-7.906 13.656H47.906L40 467.805l7.906-13.657zm-23.731 13.536 7.617 13.68-13.195 7.898-7.613-13.68 13.191-7.898m0 0 7.617 13.68-13.195 7.898-7.613-13.68zm142.676 21.398-7.617-13.68 13.191-7.898 7.617 13.68-13.191 7.898m0 0-7.617-13.68 13.191-7.898 7.617 13.68zM26.473 502.621l7.906-13.656-7.906-13.656H10.656L2.75 488.965l7.906 13.656h15.817m0 0 7.906-13.656-7.906-13.656H10.656L2.75 488.965l7.906 13.656zm-15.817.035h15.61v15.563h-15.61v-15.563m0 0h15.61v15.563h-15.61zm90.106.379 7.91-13.656-7.91-13.656H84.949l-7.91 13.656 7.906 13.656h15.817m0 0 7.91-13.656-7.91-13.656H84.949l-7.91 13.656 7.906 13.656zm37.043 64.11 7.906-13.657-7.906-13.656h-15.817l-7.91 13.656 7.91 13.657h15.817m0 0 7.906-13.657-7.906-13.656h-15.817l-7.91 13.656 7.91 13.657zm-23.731-13.54 7.617-13.68-13.195-7.894-7.617 13.68 13.195 7.894m0 0 7.617-13.68-13.195-7.894-7.617 13.68zm-50.769-13.98 7.91 13.656-7.91 13.657H47.488l-7.906-13.657 7.906-13.656h15.817m0 0 7.91 13.656-7.91 13.657H47.488l-7.906-13.657 7.906-13.656zm37.25-20.953 7.906 13.656-7.906 13.652H84.738l-7.906-13.652 7.906-13.656h15.817m0 0 7.906 13.656-7.906 13.652H84.738l-7.906-13.652 7.906-13.656zm-23.731 13.535 7.617 13.68-13.191 7.898-7.617-13.68 13.191-7.898m0 0 7.617 13.68-13.191 7.898-7.617-13.68zm7.914-29.133h15.61v15.559h-15.61v-15.559m0 0h15.61v15.559h-15.61zm-7.707-13.784 7.617-13.68-13.191-7.895-7.617 13.68 13.191 7.894m0 .001 7.617-13.68-13.191-7.895-7.617 13.68zm-37.039 64.108 7.617-13.68-13.195-7.894-7.613 13.676 13.191 7.898m0 0 7.617-13.68-13.195-7.894-7.613 13.676zm98.02-99.46 7.906 13.656-7.906 13.656h-15.817l-7.906-13.656 7.906-13.653 15.817-.004m0 .001 7.906 13.656-7.906 13.656h-15.817l-7.906-13.656 7.906-13.653zm-23.731 13.539 7.617 13.68-13.195 7.898-7.613-13.68 13.191-7.898m0 0 7.617 13.68-13.195 7.898-7.613-13.68zm60.769 35.351 7.91-13.656-7.91-13.656h-15.812l-7.91 13.656 7.906 13.656h15.817m-.001 0 7.91-13.656-7.91-13.656h-15.812l-7.91 13.656 7.906 13.656zm13.313 50.57 7.617-13.68-13.195-7.894-7.613 13.676 13.191 7.898m0 0 7.617-13.68-13.195-7.894-7.613 13.676zm-13.519-34.933 7.906 13.652-7.906 13.656h-15.817l-7.906-13.656 7.906-13.652h15.817m0 0 7.906 13.652-7.906 13.656h-15.817l-7.906-13.656 7.906-13.652zM151.113 532l7.617 13.68-13.19 7.898-7.618-13.68L151.113 532m0 0 7.617 13.68-13.19 7.898-7.618-13.68zm7.914-29.137h15.61v15.563h-15.61v-15.563m0 0h15.61v15.563h-15.61zm-7.707-13.781 7.618-13.68-13.192-7.898-7.617 13.68 13.191 7.898m0 0 7.618-13.68-13.192-7.898-7.617 13.68zm127.446-342.824 23.379 13.5-13.5 23.383-23.38-13.5 13.5-23.383m.001 0 23.379 13.5-13.5 23.383-23.38-13.5zm9.879 36.75-23.38 13.5 13.5 23.383 23.38-13.5-13.5-23.383m0 0-23.38 13.5 13.5 23.383 23.38-13.5zm36.882-36.75-23.382 13.5 13.5 23.383 23.382-13.5-13.5-23.383m0 0-23.382 13.5 13.5 23.383 23.382-13.5zm-9.882 36.75 23.382 13.5-13.5 23.383-23.382-13.5 13.5-23.383m0 0 23.382 13.5-13.5 23.383-23.382-13.5zm-26.942.066h26.5m37.324-36.816 23.383 13.5-13.5 23.383-23.383-13.5 13.5-23.383m0 0 23.383 13.5-13.5 23.383-23.383-13.5zm9.883 36.75-23.383 13.5 13.5 23.383 23.383-13.5-13.5-23.383m0 0-23.383 13.5 13.5 23.383 23.383-13.5zm36.887-36.75-23.387 13.5 13.5 23.383 23.387-13.5-13.5-23.383m0 0-23.387 13.5 13.5 23.383 23.387-13.5zm-9.887 36.75 23.387 13.5-13.5 23.383-23.387-13.5 13.5-23.383m0 0 23.387 13.5-13.5 23.383-23.387-13.5zm-26.937.066h26.5m-49.946-13v26m36.766 37.211 13.5 23.383 23.383-13.5-13.5-23.383-23.383 13.5m0 0 13.5 23.383 23.383-13.5-13.5-23.383zm.067-.058v-26.5m-96.965 13.031 23.382 13.5-13.5 23.383-23.382-13.5 13.5-23.383m0 0 23.382 13.5-13.5 23.383-23.382-13.5zm46.765 0-23.383 13.5 13.5 23.383 23.383-13.5-13.5-23.383m0 0-23.383 13.5 13.5 23.383 23.383-13.5zm27 0 23.387 13.5-13.5 23.383-23.387-13.5 13.5-23.383m0 0 23.387 13.5-13.5 23.383-23.387-13.5zm-26.937.066h26.5m-49.946-13v26m-47.875 84.328h26v26h-26v-26m0 0h26v26h-26zm12.879 49-13-23h26zm26.121 0-13-23h26zm26.125 0-13-23h26zm26.125 0-13-23h26zm-65.125-49h26v26h-26v-26m0 0h26v26h-26zm26.125 0h26v26h-26v-26m0 0h26v26h-26zm26.125 0h26v26h-26v-26m0 0h26v26h-26zm-65.496-23-13 23h26zm26.121 0-13 23h26zm26.125 0-13 23h26zm26.125 0-13 23h26zm-78.25 72h26v26h-26v-26m0 0h26v26h-26zm12.879 49-13-23h26zm26.121 0-13-23h26zm26.125 0-13-23h26zm26.125 0-13-23h26zm-65.125-49h26v26h-26v-26m0 0h26v26h-26zm26.125 0h26v26h-26v-26m0 0h26v26h-26zm26.125 0h26v26h-26v-26m0 0h26v26h-26zm-65.496-23-13 23h26zm26.121 0-13 23h26zm26.125 0-13 23h26zm26.125 0-13 23h26zm0-26h26v26h-26v-26m0 0h26v26h-26zm12.879 49-13-23h26zm26.121 0-13-23h26zm-12.875-49h26v26h-26v-26m0 0h26v26h-26zm-13.246-23-13 23h26zm26.121 0-13 23h26zm-26 72h26v26h-26v-26m0 0h26v26h-26zm12.879 49-13-23h26zm26.121 0-13-23h26zm-12.875-49h26v26h-26v-26m0 0h26v26h-26zm-13.246-23-13 23h26zm26.121 0-13 23h26zM297.559 448l11.96 20.64h-23.917zm59.668 20.64L345.27 448h23.917zM369.316 448l11.957 20.64h-23.918zm47.836 0 11.961 20.64h-23.918zm-155.539 21.023 11.961 20.645h-23.922zm23.918 0 11.961 20.645h-23.918zm23.919 0 11.96 20.645h-23.918zm83.175 62.145 11.96-20.645h-23.917zm36.422-62.145 11.957 20.645h-23.918zM249.395 489.86l11.96 20.64h-23.921zm71.757 0 11.957 20.64h-23.918zm47.836 0 11.961 20.64h-23.922zm-107.894 20.831 11.96 20.641h-23.921zm47.84 0 11.957 20.641h-23.918zm59.086 21 11.96 20.641h-23.92zm12.668-21 11.96 20.641H368.73zm-107.895 20.832 11.96 20.645h-23.917zm23.922 0 11.957 20.645h-23.918zm23.918 0 11.957 20.645h-23.918zm-59.676-20.449 12.66-21.406m23.593-.191 11.696 21.023m-36.25 20.832h24.168m60.418-62.882 11.508 21.218M332.691 510.5H358.2m-97.243-41.86h24.55m95.516 0h24.747M417.055 489.5l11.75 21.25m-36.75 20.5h25m-.43-.082 11.96-20.645h-23.917zm-59.675-62.145 11.96 20.645h-23.918zm-11.75 20.5 11.96 20.645h-23.918zm-25.145.227h26m-36.578-21.11L297.52 448h23.917zm11.078 62.86 12.25-21m23.75-.5 11.75 21.25m.25-42 12.5-20.5m36 20.5-11.75-20.5m11.75 20.75-12.5 21.25m-60.535 62.082 11.96-20.64h-23.92zm-83.215-20.582-23.75-41.75m.25.25 24.25-41.75m118.5 83.25 12.5-21m24 0 24-41m-59.328-21.61L369.27 448h23.917zM393.316 448l11.957 20.64h-23.918zm-.261 0h24M332.27 552.441l11.96 20.641h-23.92zm-23.715-.191 12 20.5m23 .25h25m-.43-.082 11.96-20.645h-23.917zm0 0"/></svg>